<?xml version="1.0" encoding="UTF-8" standalone="no"?>
<!DOCTYPE svg PUBLIC "-//W3C//DTD SVG 1.1//EN" "http://www.w3.org/Graphics/SVG/1.1/DTD/svg11.dtd">
<!-- Created with Vectornator (http://vectornator.io/) -->
<svg height="100%" stroke-miterlimit="10" style="fill-rule:nonzero;clip-rule:evenodd;stroke-linecap:round;stroke-linejoin:round;" version="1.1" viewBox="0 0 32 32" width="100%" xml:space="preserve" xmlns="http://www.w3.org/2000/svg" xmlns:xlink="http://www.w3.org/1999/xlink">
<defs/>
<g id="Layer-2">
<path d="M24.9211 7.69922L3.92114 7.69922C5.08314 20.1242 9.61714 22.6992 9.61714 22.6992L19.2261 22.6992C19.2257 22.6992 19.5449 22.6779 20.9028 21.0114C22.4197 19.1496 24.2584 15.1719 24.9211 7.69922ZM9.61714 22.6992C9.61714 22.6992 8.49614 24.0172 7.92114 25.6992L20.9211 25.6992C20.5644 24.6042 19.6931 23.3791 19.1412 22.7032C18.8453 22.3409 18.6541 22.1832 18.6541 22.1832" fill="none" opacity="1" stroke="current" stroke-linecap="butt" stroke-linejoin="miter" stroke-width="2"/>
<path d="M23.6751 14.9042C24.3581 12.4892 25.5341 11.6992 27.0951 11.6992C28.6551 11.6992 29.9211 13.1382 29.9211 14.6992C29.9211 18.8822 23.0983 17.2295 21.1853 20.6325" fill="none" opacity="1" stroke="current" stroke-linecap="butt" stroke-linejoin="miter" stroke-width="2"/>
</g>
</svg>
