<?xml version="1.0" encoding="UTF-8" standalone="no"?>
<!DOCTYPE svg PUBLIC "-//W3C//DTD SVG 1.1//EN" "http://www.w3.org/Graphics/SVG/1.1/DTD/svg11.dtd">
<!-- Created with Vectornator (http://vectornator.io/) -->
<svg height="100%" stroke-miterlimit="10" style="fill-rule:nonzero;clip-rule:evenodd;stroke-linecap:round;stroke-linejoin:round;" version="1.1" viewBox="0 0 16 16" width="100%" xml:space="preserve" xmlns="http://www.w3.org/2000/svg" xmlns:xlink="http://www.w3.org/1999/xlink">
<defs/>
<g id="Layer-3">
<path d="M8.37239 1.20858C8.36317 1.20527 8.35252 1.20729 8.34349 1.21312C8.34349 1.21312 6.56309 1.46506 5.87408 2.07342C5.10508 2.75241 5.11913 3.43994 4.87811 3.73646C4.87704 3.73778 4.52009 3.66238 4.2714 3.67133C4.10963 3.67716 3.71018 3.68891 3.24805 4.06059C2.78593 4.43227 2.53076 4.87785 2.4239 5.15868C2.41484 5.1825 2.18213 6.16903 2.08634 6.88231C1.98352 7.6478 1.86454 8.37469 1.80503 8.5514C1.55701 9.28783 1.21972 9.98268 1.19984 10.0463C1.18347 10.0988 0.564352 10.7444 1.01433 12.0638C1.04222 12.1456 0.0898251 12.0572 0.202346 13.068C0.268831 13.6652 1.32938 14.1201 1.76245 13.0952C1.76991 13.0776 1.96865 13.2912 2.30074 13.3709C2.61485 13.4462 2.99506 13.3112 3.12033 13.4451C3.31372 13.6519 3.11176 13.9159 3.36666 14.1751C3.62156 14.4344 4.57752 13.9982 5.11988 13.9555C5.24843 13.9454 6.41657 13.8527 6.66782 13.7329C6.83858 13.6514 6.88936 13.3259 6.30593 13.1482C5.92482 13.0322 4.86479 13.1293 4.63938 13.171C4.63529 13.1717 4.60222 12.8826 4.61049 12.8817C4.76582 12.8644 5.25807 12.2647 5.27346 11.6715C5.28399 11.2653 5.10419 9.83422 5.02865 9.59346C4.96461 9.38936 5.35101 9.14513 5.35101 9.14513C5.35101 9.14513 5.87445 9.22465 5.92274 9.37081C6.01233 9.6419 7.19745 12.3126 7.6562 12.7923C8.41755 13.5884 10.1329 13.6709 11.9412 13.0316C13.7494 12.3924 14.7996 11.2855 14.8835 10.1766C14.8985 9.97803 14.8739 9.67954 14.7314 8.74376C14.7191 8.66272 15.9969 6.93587 15.7259 5.69182C15.5955 5.09345 15.0285 4.39586 13.9666 5.56157C13.9229 5.60949 13.7691 5.01922 13.7887 5.01328C14.0078 4.94686 13.9912 4.64579 13.7233 4.70884C13.5366 4.75277 12.7091 5.03799 11.7116 5.38739L11.3694 7.77895L12.0917 8.66349L11.8712 10.6431L10.0146 10.475L10.1286 8.43478L11.1322 7.73049L11.4668 5.47372C9.11513 6.29965 5.81619 7.4862 5.81934 7.45331C5.82398 7.40493 6.04487 7.1323 5.78589 6.93077C5.76823 6.91703 6.33412 6.52351 6.38804 5.76907C6.38819 5.76688 7.28245 6.02566 7.96487 5.78118C8.3668 5.63719 8.43211 5.52702 8.7875 5.14959C8.81112 5.12451 9.0104 4.90263 9.24063 4.72399C9.51273 4.51284 9.68971 4.23486 9.61621 4.05604C9.58189 3.97253 8.83014 3.94562 8.6096 4.08634C7.551 4.76175 6.34171 4.88256 6.3333 4.85121C6.20212 4.36213 6.10582 4.26187 6.01246 4.17116C5.98477 4.14426 7.62951 2.97144 8.2112 1.9568C8.48456 1.47999 8.43687 1.23173 8.37239 1.20858ZM14.8728 5.64184C14.9387 5.63259 14.9924 5.64679 15.0264 5.68576C15.4073 6.12248 14.8314 7.54274 14.5763 7.81076C14.5696 7.81781 14.1795 6.38097 14.1795 6.38097C14.3717 5.91515 14.6753 5.66958 14.8728 5.64184ZM5.28866 7.71988C5.28866 7.71988 5.06177 7.94619 5.4316 8.02584C5.45059 8.02992 4.54562 8.25851 4.52229 7.74412L5.28866 7.71988Z" fill="current" fill-rule="nonzero" opacity="1" stroke="none"/>
</g>
</svg>
