<?xml version="1.0" encoding="UTF-8" standalone="no"?>
<!DOCTYPE svg PUBLIC "-//W3C//DTD SVG 1.1//EN" "http://www.w3.org/Graphics/SVG/1.1/DTD/svg11.dtd">
<!-- Created with Vectornator (http://vectornator.io/) -->
<svg height="100%" stroke-miterlimit="10" style="fill-rule:nonzero;clip-rule:evenodd;stroke-linecap:round;stroke-linejoin:round;" version="1.1" viewBox="0 0 32 32" width="100%" xml:space="preserve" xmlns="http://www.w3.org/2000/svg" xmlns:xlink="http://www.w3.org/1999/xlink">
<defs/>
<g id="Layer-1">
<g opacity="1">
<path d="M28.0312 14.9375C20.0312 14.9686 12.0313 15.0354 4.03125 15.0625C3.47598 15.0641 3.02964 15.5072 3.03125 16.0625C3.03286 16.6178 3.47598 17.0641 4.03125 17.0625C12.0313 17.0432 20.0312 17.0778 28.0312 17.0625C28.6177 17.0608 29.0955 16.5865 29.0938 16C29.092 15.4135 28.6177 14.9358 28.0312 14.9375Z" fill="current" stroke="none"/>
</g>
<g opacity="1">
<path d="M28.0312 6.9375C20.0312 6.96861 12.0313 7.03541 4.03125 7.0625C3.47598 7.06411 3.02964 7.50723 3.03125 8.0625C3.03286 8.61777 3.47598 9.06411 4.03125 9.0625C12.0313 9.04317 20.0312 9.07781 28.0312 9.0625C28.6177 9.0608 29.0955 8.58649 29.0938 8C29.092 7.41351 28.6177 6.9358 28.0312 6.9375Z" fill="current" stroke="none"/>
</g>
<g opacity="1">
<path d="M28.0312 22.9375C20.0312 22.9686 12.0313 23.0354 4.03125 23.0625C3.47598 23.0641 3.02964 23.5072 3.03125 24.0625C3.03286 24.6178 3.47598 25.0641 4.03125 25.0625C12.0313 25.0432 20.0312 25.0778 28.0312 25.0625C28.6177 25.0608 29.0955 24.5865 29.0938 24C29.092 23.4135 28.6177 22.9358 28.0312 22.9375Z" fill="current" stroke="none"/>
</g>
</g>
</svg>
