<?xml version="1.0" encoding="UTF-8" standalone="no"?>
<!DOCTYPE svg PUBLIC "-//W3C//DTD SVG 1.1//EN" "http://www.w3.org/Graphics/SVG/1.1/DTD/svg11.dtd">
<!-- Created with Vectornator (http://vectornator.io/) -->
<svg height="100%" stroke-miterlimit="10" style="fill-rule:nonzero;clip-rule:evenodd;stroke-linecap:round;stroke-linejoin:round;" version="1.1" viewBox="0 0 32 32" width="100%" xml:space="preserve" xmlns="http://www.w3.org/2000/svg" xmlns:xlink="http://www.w3.org/1999/xlink">
<defs/>
<g id="Layer-2">
<path d="M26.0277 11.9717C22.9227 8.86675 17.2597 9.49575 13.3777 13.3777C9.49575 17.2597 8.86775 22.9227 11.9717 26.0277C15.0757 29.1327 20.7397 28.5037 24.6217 24.6217C28.5037 20.7397 29.1327 15.0767 26.0277 11.9717ZM15.7767 23.2397C15.7637 23.7877 15.3087 24.2227 14.7597 24.2097C14.4937 24.2027 14.2547 24.0927 14.0807 23.9187C13.8957 23.7337 13.7827 23.4757 13.7897 23.1927C13.8217 21.8117 14.9057 18.9537 18.7727 18.0287C22.0927 17.2337 22.2187 14.8587 22.2227 14.7587C22.2427 14.2147 22.6967 13.7827 23.2407 13.7957C23.7857 13.8097 24.2177 14.2517 24.2097 14.7957C24.1927 16.1757 23.1297 19.0307 19.2347 19.9617C15.8737 20.7667 15.7777 23.2147 15.7767 23.2397Z" fill="current" fill-rule="nonzero" opacity="1" stroke="none"/>
<path d="M8.06775 19.7727C8.37275 17.0307 9.68175 14.3537 11.7507 12.1937C12.4767 10.0347 11.3337 8.75175 11.2757 8.68875C10.9027 8.28875 10.9177 7.65775 11.3147 7.27975C11.7117 6.90275 12.3347 6.90875 12.7157 7.30075C13.2377 7.83675 13.8447 8.89575 13.9677 10.2927C15.3907 9.31175 16.9537 8.62175 18.5517 8.26975C17.1037 5.69075 14.7117 3.99975 11.9997 3.99975C7.58175 3.99975 3.99975 8.47675 3.99975 13.9997C3.99975 17.7837 5.68175 21.0767 8.16275 22.7747C7.99175 21.8207 7.95175 20.8157 8.06775 19.7727Z" fill="current" fill-rule="nonzero" opacity="1" stroke="none"/>
</g>
</svg>
