<?xml version="1.0" encoding="UTF-8" standalone="no"?>
<!DOCTYPE svg PUBLIC "-//W3C//DTD SVG 1.1//EN" "http://www.w3.org/Graphics/SVG/1.1/DTD/svg11.dtd">
<!-- Created with Vectornator (http://vectornator.io/) -->
<svg height="100%" stroke-miterlimit="10" style="fill-rule:nonzero;clip-rule:evenodd;stroke-linecap:round;stroke-linejoin:round;" version="1.1" viewBox="0 0 32 32" width="100%" xml:space="preserve" xmlns="http://www.w3.org/2000/svg" xmlns:xlink="http://www.w3.org/1999/xlink">
<defs/>
<g id="Layer-1">
<g opacity="1">
<path d="M5.04427 6.04648L23.8649 6L23.7858 23.4947C23.7858 23.4947 23.3924 25.4937 21.2717 25.7836C19.1511 26.0735 7.95874 25.8463 7.95874 25.8463C7.95874 25.8463 5.19651 25.3749 5.15906 23.513C5.12161 21.6512 5.04427 6.04648 5.04427 6.04648Z" fill="current" fill-rule="nonzero" stroke="none"/>
<path d="M23.1562 5.46875C22.6549 5.43902 22.1224 5.49923 21.8438 5.5C21.5068 5.50093 21.1807 5.49907 20.8438 5.5C20.0167 5.50229 19.1708 5.49771 18.3438 5.5C16.6494 5.5047 14.9756 5.52693 13.2812 5.53125C11.588 5.53556 13.1803 5.51057 5.0625 5.53125C5.05408 5.53049 5.03978 5.53161 5.03125 5.53125C4.75001 5.54605 4.49859 5.77788 4.5 6.0625C4.43027 6.1497 4.53071 6.61593 4.53125 6.71875C4.53439 7.31651 4.52799 7.93349 4.53125 8.53125C4.54324 10.7327 4.54904 12.9236 4.5625 15.125C4.57635 17.3907 4.60449 19.6406 4.625 21.9062C4.63459 22.9656 4.48338 24.1322 5.21875 25C6.64837 26.687 8.99758 26.3819 10.9375 26.4062C12.4158 26.4248 13.8965 26.467 15.375 26.4688C16.7768 26.4704 18.1613 26.4499 19.5625 26.4062C20.508 26.3768 21.5335 26.3834 22.4062 25.9688C24.9306 24.7693 24.3037 22.0401 24.3125 19.75C24.3189 18.0871 24.3373 16.4129 24.3438 14.75C24.3492 13.3302 24.3383 11.9198 24.3438 10.5C24.3463 9.82707 24.3722 9.14168 24.375 8.46875C24.3768 8.02872 24.3731 7.97694 24.375 7.53125C24.3757 7.36721 24.3743 7.22654 24.375 7.0625C24.3762 6.78342 24.4221 6.20614 24.2812 5.9375C24.1183 5.62664 23.6576 5.49848 23.1562 5.46875ZM19.8125 6.5C20.4864 6.49854 21.1698 6.50146 21.8438 6.5C22.2176 6.49919 22.5949 6.50081 22.9688 6.5C23.0898 6.49974 23.2227 6.50034 23.3438 6.5C23.3437 6.51152 23.3438 6.51973 23.3438 6.53125C23.3429 6.70245 23.3446 6.8913 23.3438 7.0625C23.343 7.22654 23.3445 7.36721 23.3438 7.53125C23.3416 7.97694 23.3459 8.02872 23.3438 8.46875C23.3417 8.88826 23.3459 9.29924 23.3438 9.71875C23.3391 10.6363 23.3173 11.5512 23.3125 12.4688C23.3047 13.9761 23.3203 15.4926 23.3125 17C23.3045 18.5376 23.2892 20.0874 23.2812 21.625C23.2748 22.8626 23.5593 23.7646 22.5312 24.6875C21.4968 25.6163 19.542 25.3888 18.2812 25.4062C15.4347 25.4457 12.5962 25.3875 9.75 25.3438C8.44319 25.3236 7.36026 25.4654 6.25 24.5312C6.02768 24.3442 5.7909 24.1022 5.71875 23.8125C5.61722 23.4048 5.69162 22.9155 5.6875 22.5C5.67917 21.6607 5.66213 20.8393 5.65625 20C5.63769 17.3499 5.60805 14.6814 5.59375 12.0312C5.59034 11.3999 5.59706 10.7876 5.59375 10.1562C5.59088 9.60988 5.59655 9.04637 5.59375 8.5C5.59068 7.90231 5.5967 7.31644 5.59375 6.71875C5.59349 6.66703 5.594 6.61422 5.59375 6.5625C6.32942 6.56074 6.73349 6.53241 7.21875 6.53125C8.81992 6.52742 10.4301 6.53508 12.0312 6.53125C13.6529 6.52737 15.2534 6.53477 16.875 6.53125C17.8552 6.52913 18.8323 6.50212 19.8125 6.5Z" fill="current" stroke="none"/>
</g>
<g opacity="1">
<path d="M20.0625 7.8125C20.0453 7.81201 20.0482 7.84315 20.0312 7.84375C19.6234 7.85814 19.3062 8.18369 19.2812 8.59375C19.2807 8.60246 19.2502 8.58496 19.25 8.59375C19.2083 10.0924 19.279 9.46141 19.1875 10.0938C19.1159 10.5883 19.1702 11.0942 19.1562 11.5938C19.1284 12.5929 19.0903 13.5946 19.0625 14.5938C19.0347 15.5929 19.0277 16.5946 19 17.5938C18.9862 18.0933 18.9513 18.5942 18.9375 19.0938C18.9296 19.3824 18.8008 20.8004 19 20.9688C19.775 21.624 20.2289 21.3646 21.25 21.3438C21.782 21.3329 22.2154 21.3211 22.75 21.3125C23.5523 21.2996 24.3538 21.316 25.1562 21.3125C26.7291 21.3056 28.3945 21.5615 29.4062 20.0625C29.9108 19.315 29.7176 18.324 29.7188 17.4688C29.72 16.5522 29.7446 15.6353 29.75 14.7188C29.7544 13.9821 29.7416 13.5743 29.75 12.8438C29.7695 11.141 30.1344 8.53813 27.9062 8C27.2964 7.85271 26.6054 7.94519 26.0312 7.9375C25.1484 7.92567 24.2578 7.91848 23.375 7.90625C22.6878 7.89673 21.9997 7.88452 21.3125 7.875C21.0571 7.87146 21.1578 7.85849 20.0938 7.84375C20.0768 7.84219 20.0797 7.81299 20.0625 7.8125ZM20.8125 9.375C20.8444 9.37011 20.8763 9.37457 20.9062 9.375C21.0349 9.37684 21.1526 9.37316 21.2812 9.375C21.8 9.38241 22.3249 9.39884 22.8438 9.40625C23.895 9.42126 24.9488 9.42201 26 9.4375C26.5018 9.4449 26.9982 9.46847 27.5 9.46875C27.5314 9.4792 27.5424 9.49057 27.5625 9.5C27.6362 9.53465 27.6829 9.57817 27.75 9.625C27.9784 9.78445 28.1757 9.97824 28.25 10.25C28.4253 10.8911 28.2617 11.75 28.25 12.4062C28.225 13.807 28.1962 15.1928 28.1875 16.5938C28.1836 17.2277 28.1898 17.866 28.1875 18.5C28.1869 18.6599 28.188 18.84 28.1875 19C28.1874 19.0329 28.1982 19.0481 28.1875 19.0938C28.148 19.1621 28.1122 19.2508 28.0625 19.3125C27.9696 19.4278 27.8453 19.5157 27.7188 19.5938C27.2032 19.9115 26.4481 19.7559 25.875 19.75C24.5634 19.7364 23.2489 19.7607 21.9375 19.7812C21.4534 19.7888 20.9841 19.8029 20.5 19.8125C20.5067 19.5813 20.5245 19.3562 20.5312 19.125C20.5612 18.101 20.5956 17.149 20.625 16.125C20.668 14.6264 20.707 13.1236 20.75 11.625C20.7608 11.2504 20.7796 10.522 20.8125 9.375Z" fill="current" stroke="none"/>
</g>
</g>
</svg>
