<?xml version="1.0" encoding="UTF-8" standalone="no"?>
<!DOCTYPE svg PUBLIC "-//W3C//DTD SVG 1.1//EN" "http://www.w3.org/Graphics/SVG/1.1/DTD/svg11.dtd">
<!-- Created with Vectornator (http://vectornator.io/) -->
<svg height="100%" stroke-miterlimit="10" style="fill-rule:nonzero;clip-rule:evenodd;stroke-linecap:round;stroke-linejoin:round;" version="1.1" viewBox="0 0 32 32" width="100%" xml:space="preserve" xmlns="http://www.w3.org/2000/svg" xmlns:xlink="http://www.w3.org/1999/xlink">
<defs/>
<clipPath id="ArtboardFrame">
<rect height="32" width="32" x="0" y="0"/>
</clipPath>
<g clip-path="url(#ArtboardFrame)" id="Layer-2">
<path d="M8 16C8 11.5817 11.5817 8 16 8C20.4183 8 24 11.5817 24 16C24 20.4183 20.4183 24 16 24C11.5817 24 8 20.4183 8 16Z" fill="current" fill-rule="nonzero" opacity="1" stroke="current"/>
<path d="M4.1 6.1C4.1 4.99543 4.99543 4.1 6.1 4.1C7.20457 4.1 8.1 4.99543 8.1 6.1C8.1 7.20457 7.20457 8.1 6.1 8.1C4.99543 8.1 4.1 7.20457 4.1 6.1Z" fill="current" fill-rule="nonzero" opacity="1" stroke="current"/>
<path d="M4.1 25.9C4.1 24.7954 4.99543 23.9 6.1 23.9C7.20457 23.9 8.1 24.7954 8.1 25.9C8.1 27.0046 7.20457 27.9 6.1 27.9C4.99543 27.9 4.1 27.0046 4.1 25.9Z" fill="current" fill-rule="nonzero" opacity="1" stroke="current"/>
<path d="M3.55271e-15 16C3.55271e-15 14.8954 0.895431 14 2 14C3.10457 14 4 14.8954 4 16C4 17.1046 3.10457 18 2 18C0.895431 18 3.55271e-15 17.1046 3.55271e-15 16Z" fill="current" fill-rule="nonzero" opacity="1" stroke="current"/>
<path d="M14 2C14 0.895431 14.8954-3.55271e-15 16-3.55271e-15C17.1046-3.55271e-15 18 0.895431 18 2C18 3.10457 17.1046 4 16 4C14.8954 4 14 3.10457 14 2Z" fill="current" fill-rule="nonzero" opacity="1" stroke="current"/>
<path d="M27.9 25.9C27.9 27.0046 27.0046 27.9 25.9 27.9C24.7954 27.9 23.9 27.0046 23.9 25.9C23.9 24.7954 24.7954 23.9 25.9 23.9C27.0046 23.9 27.9 24.7954 27.9 25.9Z" fill="current" fill-rule="nonzero" opacity="1" stroke="current"/>
<path d="M27.9 6.1C27.9 7.20457 27.0046 8.1 25.9 8.1C24.7954 8.1 23.9 7.20457 23.9 6.1C23.9 4.99543 24.7954 4.1 25.9 4.1C27.0046 4.1 27.9 4.99543 27.9 6.1Z" fill="current" fill-rule="nonzero" opacity="1" stroke="current"/>
<path d="M32 16C32 17.1046 31.1046 18 30 18C28.8954 18 28 17.1046 28 16C28 14.8954 28.8954 14 30 14C31.1046 14 32 14.8954 32 16Z" fill="current" fill-rule="nonzero" opacity="1" stroke="current"/>
<path d="M18 30C18 31.1046 17.1046 32 16 32C14.8954 32 14 31.1046 14 30C14 28.8954 14.8954 28 16 28C17.1046 28 18 28.8954 18 30Z" fill="current" fill-rule="nonzero" opacity="1" stroke="current"/>
</g>
</svg>
