<?xml version="1.0" encoding="UTF-8" standalone="no"?>
<!DOCTYPE svg PUBLIC "-//W3C//DTD SVG 1.1//EN" "http://www.w3.org/Graphics/SVG/1.1/DTD/svg11.dtd">
<!-- Created with Vectornator (http://vectornator.io/) -->
<svg height="100%" stroke-miterlimit="10" style="fill-rule:nonzero;clip-rule:evenodd;stroke-linecap:round;stroke-linejoin:round;" version="1.1" viewBox="0 0 320 320" width="100%" xml:space="preserve" xmlns="http://www.w3.org/2000/svg" xmlns:xlink="http://www.w3.org/1999/xlink">
<defs/>
<clipPath id="ArtboardFrame">
<rect height="320" width="320" x="0" y="0"/>
</clipPath>
<g clip-path="url(#ArtboardFrame)" id="Layer-3">
<path d="M168.094 25.0312C167.904 24.963 167.685 25.0046 167.5 25.125C167.5 25.125 130.91 30.3231 116.75 42.875C100.946 56.8841 101.235 71.0695 96.2812 77.1875C96.2593 77.2146 88.9234 75.659 83.8125 75.8438C80.4879 75.9639 72.2785 76.2063 62.7812 83.875C53.284 91.5437 48.0398 100.737 45.8438 106.531C45.6575 107.023 40.875 127.377 38.9062 142.094C36.7933 157.888 34.3481 172.885 33.125 176.531C28.0279 191.725 21.096 206.062 20.6875 207.375C20.351 208.457 7.62726 221.778 16.875 249C17.4482 250.687-2.12496 248.864 0.1875 269.719C1.55387 282.041 23.3498 291.427 32.25 270.281C32.4032 269.917 36.4876 274.325 43.3125 275.969C49.7679 277.523 57.5819 274.737 60.1562 277.5C64.1308 281.766 59.9802 287.215 65.2188 292.562C70.4573 297.911 90.1037 288.911 101.25 288.031C103.892 287.823 127.899 285.91 133.062 283.438C136.572 281.757 137.615 275.04 125.625 271.375C117.793 268.981 96.0075 270.983 91.375 271.844C91.291 271.859 90.6114 265.894 90.7812 265.875C93.9736 265.519 104.09 253.146 104.406 240.906C104.623 232.526 100.927 202.999 99.375 198.031C98.0591 193.82 106 188.781 106 188.781C106 188.781 116.757 190.422 117.75 193.438C119.591 199.031 143.947 254.134 153.375 264.031C169.022 280.456 204.275 282.158 241.438 268.969C278.6 255.78 300.183 232.941 301.906 210.062C302.215 205.966 301.71 199.807 298.781 180.5C298.528 178.828 324.79 143.199 319.219 117.531C316.539 105.185 304.888 90.7924 283.062 114.844C282.165 115.833 279.003 103.654 279.406 103.531C283.909 102.161 283.569 95.9491 278.062 97.25C274.227 98.1563 257.219 104.041 236.719 111.25L229.688 160.594L244.531 178.844L240 219.688L201.844 216.219L204.188 174.125L224.812 159.594L231.688 113.031C183.358 130.072 115.56 154.554 115.625 153.875C115.72 152.877 120.26 147.252 114.938 143.094C114.575 142.81 126.204 134.691 127.312 119.125C127.316 119.08 145.694 124.419 159.719 119.375C167.979 116.404 169.321 114.131 176.625 106.344C177.11 105.826 181.206 101.248 185.938 97.5625C191.53 93.2061 195.167 87.4707 193.656 83.7812C192.951 82.0582 177.501 81.5029 172.969 84.4062C151.213 98.3417 126.36 100.834 126.188 100.188C123.492 90.0965 121.512 88.0279 119.594 86.1562C119.025 85.6013 152.827 61.4033 164.781 40.4688C170.399 30.6311 169.419 25.5088 168.094 25.0312ZM301.688 116.5C303.041 116.309 304.145 116.602 304.844 117.406C312.671 126.417 300.835 155.72 295.594 161.25C295.456 161.395 287.438 131.75 287.438 131.75C291.388 122.139 297.628 117.072 301.688 116.5ZM104.719 159.375C104.719 159.375 100.056 164.044 107.656 165.688C108.046 165.772 89.448 170.488 88.9688 159.875L104.719 159.375Z" fill="current" fill-rule="nonzero" opacity="1" stroke="none"/>
</g>
</svg>
